<svg width="536" height="33" viewBox="0 0 536 33" fill="none" xmlns="http://www.w3.org/2000/svg">
<path fill-rule="evenodd" clip-rule="evenodd" d="M235.303 16.0795H231.103L232.509 14.6997H240L238.897 15.7907C238.692 15.9764 238.555 16.1878 238.555 16.496V22.5235C235.059 23.4855 232.033 24 228.624 24C221.594 24 216 19.4245 216 11.8291C216 6.49306 220.195 0 229.372 0C233.553 0 236.478 1.2844 238.498 2.63586L235.304 5.79399V3.8906C233.601 2.36376 231.697 1.26764 228.426 1.26764C223.255 1.26764 219.549 5.23419 219.549 10.889C219.549 16.6547 223.647 22.5583 230.618 22.5583C232.338 22.5583 233.993 22.3299 235.303 21.9135V16.0795ZM249.413 8C244.218 8 241 11.6897 241 15.6061C241 18.9865 243.593 23 248.846 23C253.9 23 257 19.3031 257 15.3181C257 11.6062 253.97 8.00137 249.413 8.00137V8ZM248.551 9.0757C252.213 9.0757 253.844 13.7138 253.844 17.0219C253.844 21.9417 250.047 22.039 249.594 22.039C247.856 22.039 246.642 21.0182 245.733 19.6794C244.933 18.4455 244.151 16.1531 244.151 13.9132C244.151 11.6821 244.902 10.5927 246.084 9.79117C247.051 9.19038 247.956 9.0757 248.55 9.0757H248.551ZM283.416 8C279.032 8 276.66 10.8954 276.66 14.1281C276.66 16.5892 278.351 19.3657 281.837 19.3657H282.719C282.719 19.3657 282.479 19.9745 282.478 20.5626C282.478 21.4301 282.776 21.9173 283.411 22.667C277.411 23.0483 275 25.5727 275 28.2858C275 30.6617 277.181 33 281.764 33C287.19 33 290 29.8576 290 26.7736C290 24.5995 288.962 23.4077 286.332 21.3525C285.559 20.7256 285.409 20.3263 285.409 19.8571C285.409 19.1974 285.781 18.7567 285.928 18.5819L285.936 18.5723C286.1 18.3916 286.343 18.1941 286.536 18.0376L286.536 18.0375L286.537 18.0372C286.636 17.9564 286.722 17.8865 286.777 17.8355C287.661 17.0548 288.908 15.8994 288.908 13.5933C288.908 12.0111 288.278 10.6501 286.84 9.37557H288.595L289.913 8.00026H283.416V8ZM282.207 9.0289C283.002 9.0289 283.666 9.32231 284.367 9.93112C285.145 10.6627 286.388 12.6287 286.388 15.0614C286.388 17.6866 284.433 18.4053 283.375 18.4053C282.857 18.4053 282.236 18.2541 281.711 17.8792C280.544 17.0896 279.385 14.9877 279.385 12.4866C279.385 10.2297 280.674 9.0289 282.207 9.0289ZM284.517 23.6921C284.517 23.6921 284.277 23.6635 283.943 23.6635C279.441 23.7293 277.8 25.5004 277.8 27.5583C277.8 30.0426 280.194 31.5639 283.327 31.5639C286.18 31.5639 287.942 30.0103 287.942 28.0287C287.942 26.5874 287.142 25.7782 285.858 24.7196C285.307 24.2802 284.517 23.6921 284.517 23.6921ZM297.03 23H290.663L291.83 21.8458C292.021 21.6494 292.11 21.4581 292.11 21.177V1.40269H290L291.413 0H296.843L295.694 1.13985C295.566 1.26229 295.39 1.45487 295.39 1.83092V20.9208C295.39 21.3294 295.682 21.751 296.174 21.8108L298 22.0372L297.03 23ZM298 15.2021C298 10.5765 301.822 8 305.421 8H305.422C309.239 8 310.9 9.98699 311.489 11.9602L301.29 15.8329C302.264 19.4302 305.048 21.3872 307.935 21.3872C309.454 21.3872 310.598 20.9509 312 20.2866C311.257 21.2202 310.24 21.9631 309.182 22.4205C308.196 22.8456 307.144 23 305.866 23C300.742 23 298 19.0224 298 15.2021ZM308.081 11.7182C308.081 10.5503 306.685 9.05825 304.754 9.05825C303.478 9.05825 300.891 9.95695 300.891 13.3187C300.891 14.1202 301.061 14.8618 301.061 14.8618L307.33 12.4798C307.829 12.2953 308.081 12.0959 308.081 11.7182ZM267.413 8C262.218 8 259 11.6897 259 15.6061C259 18.9865 261.593 23 266.846 23C271.9 23 275 19.3031 275 15.3181C275 11.6062 271.97 8.00137 267.413 8.00137V8ZM266.551 9.0757C270.213 9.0757 271.844 13.7138 271.844 17.0219C271.844 21.9417 268.047 22.039 267.594 22.039C265.856 22.039 264.642 21.0182 263.733 19.6794C262.933 18.4455 262.151 16.1531 262.151 13.9132C262.151 11.6821 262.902 10.5927 264.084 9.79117C265.051 9.19038 265.956 9.0757 266.55 9.0757H266.551Z" fill="white"/>
<path fill-rule="evenodd" clip-rule="evenodd" d="M56.5539 19.06H65.2099L60.6328 11.709L52.2322 24.9997H48.4091L58.6269 9.03466C59.071 8.38975 59.8115 8 60.6328 8C61.427 8 62.1674 8.37622 62.5983 9.00784L72.8565 24.9997H69.0334L67.2296 22.0299H58.4657L56.5539 19.06ZM96.2673 22.0296V8.16116H93.023V23.3871C93.023 23.8037 93.1845 24.207 93.4941 24.516C93.8037 24.825 94.221 24.9997 94.6787 24.9997H109.474L111.386 22.0299H96.2671L96.2673 22.0296ZM48.3014 13.8591C48.3014 17.0037 45.7436 19.5434 42.5932 19.5434L42.5934 19.544H41.1125L47.6282 25H42.9163L33.2318 16.5741L42.378 16.5873C43.8858 16.5873 45.0973 15.3645 45.0973 13.8596C45.0973 12.3545 43.8858 11.1313 42.378 11.1313H31.6432V25H28.3999V8.16091H42.5932C45.7436 8.16091 48.3014 10.7142 48.3014 13.8591ZM8.43568 24.9997C3.77904 25 0 21.2371 0 16.5873C0 11.9374 3.77904 8.16142 8.43568 8.16142H18.2402C22.8979 8.16142 26.6741 11.9374 26.6741 16.5873C26.6741 21.2371 22.8979 24.9997 18.24 24.9997H8.43568ZM23.4825 16.5871C23.4825 19.5973 21.0391 22.0299 18.0222 22.0299H18.022H8.6524C5.63684 22.0299 3.1921 19.5973 3.1921 16.5873C3.1921 13.5771 5.63684 11.1313 8.65265 11.1313H18.0222C21.0391 11.1313 23.4825 13.5771 23.4825 16.5871ZM79.628 24.9997C74.9704 24.9997 71.1872 21.2371 71.1872 16.5873C71.1872 11.9374 74.9704 8.16142 79.628 8.16142H91.2732L89.3747 11.1313H79.8435C76.8279 11.1313 74.3778 13.5771 74.3778 16.5873C74.3778 19.5973 76.8279 22.0299 79.8435 22.0299H91.5421L89.6304 24.9997H79.628ZM114.051 18.0654C114.697 20.3636 116.811 22.0299 119.302 22.0299H131L129.088 24.9995H119.086C114.428 24.9995 110.645 21.2368 110.645 16.5868C110.645 11.9371 114.428 8.16091 119.086 8.16091H130.744L128.82 11.1313H119.302C116.811 11.1313 114.697 12.8109 114.051 15.0955H129.829L127.917 18.0654H114.051Z" fill="white"/>
<path fill-rule="evenodd" clip-rule="evenodd" d="M413.541 4V7.50139L414.23 7.45799C423.086 7.15415 428.871 14.7791 428.871 14.7791C428.871 14.7791 422.239 22.9104 415.335 22.9104C414.732 22.9104 414.144 22.8525 413.555 22.7513V24.9215C414.043 24.9794 414.545 25.0228 415.033 25.0228C421.464 25.0228 426.115 21.7095 430.622 17.803C430.959 18.0772 431.766 18.5252 432.609 18.9929C433.634 19.5616 434.711 20.1593 435.057 20.5086C430.78 24.1258 420.804 27.0339 415.148 27.0339C414.603 27.0339 414.086 27.005 413.569 26.9471V30H438V4H413.541ZM413.541 11.7551V9.41237L413.555 9.41124V9.41034C413.78 9.39618 414.005 9.3823 414.23 9.3823C420.603 9.17974 424.78 14.9093 424.78 14.9093C424.78 14.9093 420.273 21.2176 415.435 21.2176C414.789 21.2176 414.158 21.1163 413.555 20.9137V13.7952C415.893 14.0813 416.475 15.0727 417.769 17.2768C417.85 17.4137 417.933 17.5553 418.019 17.7017L421.335 14.8948C421.335 14.8948 418.909 11.6973 414.833 11.6973C414.402 11.6828 413.971 11.7117 413.541 11.7551ZM413.541 11.7551L413.541 13.7807H413.526C411.043 13.4769 409.091 15.8208 409.091 15.8208C409.091 15.8208 410.196 19.7707 413.541 20.9137V22.7657C407.598 21.695 405.947 15.4591 405.947 15.4591C405.947 15.4591 408.804 12.276 413.541 11.7551ZM413.555 9.41034L413.541 9.41124L413.541 9.41124V9.41237C406.502 9.96816 402.99 15.1987 402.99 15.1987C402.99 15.1987 405.675 23.9377 413.541 24.9215V26.9471C402.818 25.9343 399 14.7935 399 14.7935C399 14.7935 405.746 8.13801 413.555 7.50139V9.41034ZM445 9V25.9856H449.852V12.797L453.635 12.8113C454.877 12.8113 455.743 13.1134 456.335 13.7462C457.101 14.5516 457.404 15.8604 457.404 18.2335V25.9856H462.111V16.6083C462.111 9.90609 457.823 9 453.635 9H445ZM482.832 9.02876V26H487.641V9.02876H482.832ZM490.587 26V9.02876H497.33C501.171 9.02876 503.741 9.489 505.503 11.8621C506.499 13.1853 507.063 15.3139 507.063 17.7014C507.063 20.3046 506.398 22.692 505.359 23.7707C503.9 25.3096 502.543 26 498.384 26H490.587ZM495.352 12.7107H497.417C500.42 12.7107 502.355 14.0482 502.355 17.5288C502.355 21.0093 500.42 22.3613 497.417 22.3613H495.352V12.7107ZM471.887 22.4763L475.901 9.02876H480.811L475.266 26H468.335L462.848 9.02876H468.046L471.887 22.4763ZM509.315 26H514.124V9.02876H509.315V26ZM516.087 25.9856L522.802 9.02876H529.228L536 25.9712H530.845L529.834 22.9797H521.892L520.824 25.9856H516.087ZM525.921 12.121L528.838 20.0601H522.917L525.921 12.121Z" fill="white"/>
</svg>
