<svg width="470" height="78" viewBox="0 0 470 78" fill="none" xmlns="http://www.w3.org/2000/svg">
<g filter="url(#filter0_d_0_4873)">
<rect y="5" width="445" height="48" rx="24" fill="#FBFCFE"/>
</g>
<path opacity="0.5" d="M28.215 35V24.155H35.6625L35.655 26H30.4125V28.6325H34.965V30.44H30.3975V33.1325L35.7375 33.14V35H28.215ZM37.3711 35V27.245H39.5236V28.34C39.6436 28.15 39.7986 27.9675 39.9886 27.7925C40.1836 27.6125 40.4286 27.465 40.7236 27.35C41.0186 27.235 41.3686 27.1775 41.7736 27.1775C42.2486 27.1775 42.6911 27.27 43.1011 27.455C43.5161 27.64 43.8511 27.9325 44.1061 28.3325C44.3611 28.7275 44.4886 29.245 44.4886 29.885V35H42.2986V30.155C42.2986 29.735 42.1736 29.42 41.9236 29.21C41.6736 29 41.3686 28.895 41.0086 28.895C40.7686 28.895 40.5361 28.9375 40.3111 29.0225C40.0911 29.1075 39.9111 29.235 39.7711 29.405C39.6311 29.575 39.5611 29.785 39.5611 30.035V35H37.3711ZM50.6361 28.7675H48.9111L48.9261 32.9C48.9261 33.09 48.9486 33.2325 48.9936 33.3275C49.0436 33.4175 49.1186 33.4775 49.2186 33.5075C49.3236 33.5325 49.4561 33.545 49.6161 33.545H50.6586V34.895C50.5586 34.94 50.4011 34.9825 50.1861 35.0225C49.9761 35.0625 49.6811 35.0825 49.3011 35.0825C48.6211 35.0825 48.0936 34.995 47.7186 34.82C47.3486 34.645 47.0911 34.4 46.9461 34.085C46.8011 33.77 46.7286 33.405 46.7286 32.99V28.7675H45.4686V27.245H46.8036L47.3511 24.905H48.9111V27.2375H50.6361V28.7675ZM53.8049 31.625C53.7999 32.02 53.8624 32.365 53.9924 32.66C54.1224 32.95 54.3099 33.175 54.5549 33.335C54.8049 33.49 55.1049 33.5675 55.4549 33.5675C55.8299 33.5675 56.1574 33.4875 56.4374 33.3275C56.7224 33.1675 56.9199 32.905 57.0299 32.54H59.0024C58.9174 33.09 58.6974 33.56 58.3424 33.95C57.9924 34.34 57.5674 34.6375 57.0674 34.8425C56.5674 35.0475 56.0474 35.15 55.5074 35.15C54.7424 35.15 54.0674 34.99 53.4824 34.67C52.9024 34.345 52.4499 33.8875 52.1249 33.2975C51.7999 32.7075 51.6374 32.0125 51.6374 31.2125C51.6374 30.4375 51.7849 29.74 52.0799 29.12C52.3749 28.495 52.8024 28.0025 53.3624 27.6425C53.9274 27.2775 54.6049 27.095 55.3949 27.095C56.1849 27.095 56.8474 27.2625 57.3824 27.5975C57.9224 27.9275 58.3274 28.39 58.5974 28.985C58.8724 29.575 59.0099 30.2575 59.0099 31.0325V31.625H53.8049ZM53.7974 30.32H56.9624C56.9624 30.01 56.9049 29.725 56.7899 29.465C56.6749 29.205 56.4999 29 56.2649 28.85C56.0349 28.7 55.7449 28.625 55.3949 28.625C55.0549 28.625 54.7649 28.7075 54.5249 28.8725C54.2899 29.0325 54.1099 29.2425 53.9849 29.5025C53.8599 29.7625 53.7974 30.035 53.7974 30.32ZM60.5303 35V27.245H62.6378V29.0825C62.7628 28.6875 62.9378 28.3425 63.1628 28.0475C63.3928 27.7475 63.6703 27.515 63.9953 27.35C64.3203 27.18 64.6878 27.095 65.0978 27.095C65.1678 27.095 65.2328 27.1 65.2928 27.11C65.3578 27.115 65.4053 27.125 65.4353 27.14V29.225C65.3903 29.205 65.3353 29.1925 65.2703 29.1875C65.2103 29.1825 65.1553 29.1775 65.1053 29.1725C64.6753 29.1375 64.3078 29.15 64.0028 29.21C63.6978 29.27 63.4503 29.3725 63.2603 29.5175C63.0703 29.6625 62.9328 29.84 62.8478 30.05C62.7628 30.26 62.7203 30.495 62.7203 30.755V35H60.5303ZM71.5148 31.625C71.5098 32.02 71.5723 32.365 71.7023 32.66C71.8323 32.95 72.0198 33.175 72.2648 33.335C72.5148 33.49 72.8148 33.5675 73.1648 33.5675C73.5398 33.5675 73.8673 33.4875 74.1473 33.3275C74.4323 33.1675 74.6298 32.905 74.7398 32.54H76.7123C76.6273 33.09 76.4073 33.56 76.0523 33.95C75.7023 34.34 75.2773 34.6375 74.7773 34.8425C74.2773 35.0475 73.7573 35.15 73.2173 35.15C72.4523 35.15 71.7773 34.99 71.1923 34.67C70.6123 34.345 70.1598 33.8875 69.8348 33.2975C69.5098 32.7075 69.3473 32.0125 69.3473 31.2125C69.3473 30.4375 69.4948 29.74 69.7898 29.12C70.0848 28.495 70.5123 28.0025 71.0723 27.6425C71.6373 27.2775 72.3148 27.095 73.1048 27.095C73.8948 27.095 74.5573 27.2625 75.0923 27.5975C75.6323 27.9275 76.0373 28.39 76.3073 28.985C76.5823 29.575 76.7198 30.2575 76.7198 31.0325V31.625H71.5148ZM71.5073 30.32H74.6723C74.6723 30.01 74.6148 29.725 74.4998 29.465C74.3848 29.205 74.2098 29 73.9748 28.85C73.7448 28.7 73.4548 28.625 73.1048 28.625C72.7648 28.625 72.4748 28.7075 72.2348 28.8725C71.9998 29.0325 71.8198 29.2425 71.6948 29.5025C71.5698 29.7625 71.5073 30.035 71.5073 30.32ZM78.2402 35V27.245H80.3852V28.34C80.6202 28 80.9352 27.7075 81.3302 27.4625C81.7302 27.2175 82.2327 27.095 82.8377 27.095C83.1027 27.095 83.3727 27.1425 83.6477 27.2375C83.9227 27.3325 84.1802 27.4725 84.4202 27.6575C84.6652 27.8375 84.8627 28.065 85.0127 28.34C85.2627 27.985 85.5902 27.69 85.9952 27.455C86.4052 27.215 86.8602 27.095 87.3602 27.095C87.6502 27.095 87.9427 27.1425 88.2377 27.2375C88.5377 27.3325 88.8127 27.4875 89.0627 27.7025C89.3127 27.9175 89.5127 28.205 89.6627 28.565C89.8177 28.92 89.8952 29.36 89.8952 29.885V35H87.7052V30.155C87.7052 29.845 87.6427 29.5975 87.5177 29.4125C87.3977 29.2225 87.2427 29.0875 87.0527 29.0075C86.8677 28.9225 86.6702 28.88 86.4602 28.88C86.2652 28.88 86.0677 28.92 85.8677 29C85.6677 29.075 85.4977 29.1975 85.3577 29.3675C85.2177 29.5375 85.1477 29.76 85.1477 30.035V35H82.9652V29.96C82.9652 29.725 82.9027 29.5275 82.7777 29.3675C82.6527 29.2075 82.4952 29.0875 82.3052 29.0075C82.1202 28.9225 81.9302 28.88 81.7352 28.88C81.5352 28.88 81.3352 28.9225 81.1352 29.0075C80.9352 29.0875 80.7677 29.215 80.6327 29.39C80.4977 29.56 80.4302 29.775 80.4302 30.035V35H78.2402ZM93.8643 35.15C93.3693 35.15 92.9243 35.0575 92.5293 34.8725C92.1343 34.6875 91.8218 34.42 91.5918 34.07C91.3618 33.715 91.2468 33.285 91.2468 32.78C91.2468 31.93 91.5643 31.285 92.1993 30.845C92.8343 30.4 93.8368 30.17 95.2068 30.155L96.1743 30.14V29.675C96.1743 29.32 96.0693 29.0475 95.8593 28.8575C95.6543 28.6625 95.3343 28.5675 94.8993 28.5725C94.5793 28.5775 94.2743 28.6525 93.9843 28.7975C93.6993 28.9425 93.5043 29.195 93.3993 29.555H91.5768C91.6068 28.995 91.7693 28.535 92.0643 28.175C92.3593 27.81 92.7593 27.54 93.2643 27.365C93.7743 27.185 94.3518 27.095 94.9968 27.095C95.7918 27.095 96.4293 27.195 96.9093 27.395C97.3893 27.59 97.7368 27.8725 97.9518 28.2425C98.1668 28.6075 98.2743 29.0425 98.2743 29.5475V35H96.4443L96.2643 33.665C95.9993 34.225 95.6668 34.6125 95.2668 34.8275C94.8718 35.0425 94.4043 35.15 93.8643 35.15ZM94.5993 33.71C94.7993 33.71 94.9918 33.675 95.1768 33.605C95.3668 33.53 95.5343 33.4325 95.6793 33.3125C95.8293 33.1875 95.9493 33.0475 96.0393 32.8925C96.1293 32.7375 96.1743 32.5775 96.1743 32.4125V31.265L95.3868 31.28C95.0218 31.285 94.6818 31.33 94.3668 31.415C94.0518 31.495 93.7968 31.6275 93.6018 31.8125C93.4118 31.9975 93.3168 32.2475 93.3168 32.5625C93.3168 32.9225 93.4418 33.205 93.6918 33.41C93.9418 33.61 94.2443 33.71 94.5993 33.71ZM102.418 27.245V35H100.325V27.245H102.418ZM102.44 24.1625V26.135H100.31V24.1625H102.44ZM106.921 35.135C106.351 35.135 105.899 35.0675 105.564 34.9325C105.229 34.7975 104.981 34.62 104.821 34.4C104.661 34.175 104.559 33.9275 104.514 33.6575C104.469 33.3825 104.446 33.105 104.446 32.825V23.855H106.591V32.555C106.591 32.84 106.651 33.0725 106.771 33.2525C106.896 33.4275 107.129 33.535 107.469 33.575L107.836 33.5975V34.9475C107.686 34.9975 107.534 35.04 107.379 35.075C107.224 35.115 107.071 35.135 106.921 35.135ZM114.753 35.15C114.258 35.15 113.813 35.0575 113.418 34.8725C113.023 34.6875 112.71 34.42 112.48 34.07C112.25 33.715 112.135 33.285 112.135 32.78C112.135 31.93 112.453 31.285 113.088 30.845C113.723 30.4 114.725 30.17 116.095 30.155L117.063 30.14V29.675C117.063 29.32 116.958 29.0475 116.748 28.8575C116.543 28.6625 116.223 28.5675 115.788 28.5725C115.468 28.5775 115.163 28.6525 114.873 28.7975C114.588 28.9425 114.393 29.195 114.288 29.555H112.465C112.495 28.995 112.658 28.535 112.953 28.175C113.248 27.81 113.648 27.54 114.153 27.365C114.663 27.185 115.24 27.095 115.885 27.095C116.68 27.095 117.318 27.195 117.798 27.395C118.278 27.59 118.625 27.8725 118.84 28.2425C119.055 28.6075 119.163 29.0425 119.163 29.5475V35H117.333L117.153 33.665C116.888 34.225 116.555 34.6125 116.155 34.8275C115.76 35.0425 115.293 35.15 114.753 35.15ZM115.488 33.71C115.688 33.71 115.88 33.675 116.065 33.605C116.255 33.53 116.423 33.4325 116.568 33.3125C116.718 33.1875 116.838 33.0475 116.928 32.8925C117.018 32.7375 117.063 32.5775 117.063 32.4125V31.265L116.275 31.28C115.91 31.285 115.57 31.33 115.255 31.415C114.94 31.495 114.685 31.6275 114.49 31.8125C114.3 31.9975 114.205 32.2475 114.205 32.5625C114.205 32.9225 114.33 33.205 114.58 33.41C114.83 33.61 115.133 33.71 115.488 33.71ZM123.982 35.15C122.942 35.15 122.132 34.7925 121.552 34.0775C120.972 33.3575 120.682 32.3575 120.682 31.0775C120.682 30.2675 120.799 29.565 121.034 28.97C121.269 28.375 121.617 27.915 122.077 27.59C122.537 27.26 123.099 27.095 123.764 27.095C124.044 27.095 124.304 27.1275 124.544 27.1925C124.789 27.2525 125.012 27.3375 125.212 27.4475C125.412 27.5575 125.587 27.685 125.737 27.83C125.887 27.975 126.009 28.13 126.104 28.295V23.855H128.302V35H126.712L126.464 33.41C126.394 33.625 126.297 33.835 126.172 34.04C126.047 34.245 125.887 34.4325 125.692 34.6025C125.497 34.7675 125.257 34.9 124.972 35C124.692 35.1 124.362 35.15 123.982 35.15ZM124.462 33.575C125.012 33.575 125.422 33.3825 125.692 32.9975C125.967 32.6125 126.104 31.9625 126.104 31.0475C126.099 30.5175 126.037 30.0775 125.917 29.7275C125.797 29.3775 125.617 29.1175 125.377 28.9475C125.142 28.7725 124.842 28.685 124.477 28.685C124.002 28.685 123.607 28.8675 123.292 29.2325C122.977 29.5925 122.819 30.1975 122.819 31.0475C122.819 31.9125 122.967 32.55 123.262 32.96C123.557 33.37 123.957 33.575 124.462 33.575ZM133.064 35.15C132.024 35.15 131.214 34.7925 130.634 34.0775C130.054 33.3575 129.764 32.3575 129.764 31.0775C129.764 30.2675 129.881 29.565 130.116 28.97C130.351 28.375 130.699 27.915 131.159 27.59C131.619 27.26 132.181 27.095 132.846 27.095C133.126 27.095 133.386 27.1275 133.626 27.1925C133.871 27.2525 134.094 27.3375 134.294 27.4475C134.494 27.5575 134.669 27.685 134.819 27.83C134.969 27.975 135.091 28.13 135.186 28.295V23.855H137.384V35H135.794L135.546 33.41C135.476 33.625 135.379 33.835 135.254 34.04C135.129 34.245 134.969 34.4325 134.774 34.6025C134.579 34.7675 134.339 34.9 134.054 35C133.774 35.1 133.444 35.15 133.064 35.15ZM133.544 33.575C134.094 33.575 134.504 33.3825 134.774 32.9975C135.049 32.6125 135.186 31.9625 135.186 31.0475C135.181 30.5175 135.119 30.0775 134.999 29.7275C134.879 29.3775 134.699 29.1175 134.459 28.9475C134.224 28.7725 133.924 28.685 133.559 28.685C133.084 28.685 132.689 28.8675 132.374 29.2325C132.059 29.5925 131.901 30.1975 131.901 31.0475C131.901 31.9125 132.049 32.55 132.344 32.96C132.639 33.37 133.039 33.575 133.544 33.575ZM139.31 35V27.245H141.417V29.0825C141.542 28.6875 141.717 28.3425 141.942 28.0475C142.172 27.7475 142.45 27.515 142.775 27.35C143.1 27.18 143.467 27.095 143.877 27.095C143.947 27.095 144.012 27.1 144.072 27.11C144.137 27.115 144.185 27.125 144.215 27.14V29.225C144.17 29.205 144.115 29.1925 144.05 29.1875C143.99 29.1825 143.935 29.1775 143.885 29.1725C143.455 29.1375 143.087 29.15 142.782 29.21C142.477 29.27 142.23 29.3725 142.04 29.5175C141.85 29.6625 141.712 29.84 141.627 30.05C141.542 30.26 141.5 30.495 141.5 30.755V35H139.31ZM147.159 31.625C147.154 32.02 147.217 32.365 147.347 32.66C147.477 32.95 147.664 33.175 147.909 33.335C148.159 33.49 148.459 33.5675 148.809 33.5675C149.184 33.5675 149.512 33.4875 149.792 33.3275C150.077 33.1675 150.274 32.905 150.384 32.54H152.357C152.272 33.09 152.052 33.56 151.697 33.95C151.347 34.34 150.922 34.6375 150.422 34.8425C149.922 35.0475 149.402 35.15 148.862 35.15C148.097 35.15 147.422 34.99 146.837 34.67C146.257 34.345 145.804 33.8875 145.479 33.2975C145.154 32.7075 144.992 32.0125 144.992 31.2125C144.992 30.4375 145.139 29.74 145.434 29.12C145.729 28.495 146.157 28.0025 146.717 27.6425C147.282 27.2775 147.959 27.095 148.749 27.095C149.539 27.095 150.202 27.2625 150.737 27.5975C151.277 27.9275 151.682 28.39 151.952 28.985C152.227 29.575 152.364 30.2575 152.364 31.0325V31.625H147.159ZM147.152 30.32H150.317C150.317 30.01 150.259 29.725 150.144 29.465C150.029 29.205 149.854 29 149.619 28.85C149.389 28.7 149.099 28.625 148.749 28.625C148.409 28.625 148.119 28.7075 147.879 28.8725C147.644 29.0325 147.464 29.2425 147.339 29.5025C147.214 29.7625 147.152 30.035 147.152 30.32ZM156.923 35.15C156.383 35.15 155.863 35.0625 155.363 34.8875C154.863 34.7075 154.44 34.4275 154.095 34.0475C153.75 33.6625 153.53 33.165 153.435 32.555H155.333C155.398 32.83 155.515 33.0475 155.685 33.2075C155.86 33.3675 156.058 33.4825 156.278 33.5525C156.498 33.6175 156.708 33.65 156.908 33.65C157.328 33.65 157.665 33.585 157.92 33.455C158.18 33.32 158.31 33.115 158.31 32.84C158.31 32.63 158.233 32.4625 158.078 32.3375C157.928 32.2125 157.678 32.1175 157.328 32.0525L155.963 31.7675C155.278 31.6225 154.728 31.3775 154.313 31.0325C153.898 30.6825 153.685 30.1875 153.675 29.5475C153.675 29.0825 153.798 28.665 154.043 28.295C154.293 27.925 154.66 27.6325 155.145 27.4175C155.63 27.2025 156.225 27.095 156.93 27.095C157.885 27.095 158.648 27.305 159.218 27.725C159.793 28.145 160.085 28.7375 160.095 29.5025H158.265C158.21 29.2025 158.06 28.9725 157.815 28.8125C157.575 28.6475 157.273 28.565 156.908 28.565C156.528 28.565 156.215 28.6325 155.97 28.7675C155.725 28.9025 155.603 29.1075 155.603 29.3825C155.603 29.5875 155.703 29.75 155.903 29.87C156.103 29.985 156.413 30.085 156.833 30.17L158.093 30.455C158.528 30.56 158.88 30.705 159.15 30.89C159.425 31.07 159.638 31.2675 159.788 31.4825C159.938 31.6975 160.04 31.915 160.095 32.135C160.155 32.35 160.185 32.545 160.185 32.72C160.185 33.235 160.048 33.675 159.773 34.04C159.498 34.4 159.115 34.675 158.625 34.865C158.135 35.055 157.568 35.15 156.923 35.15ZM164.687 35.15C164.147 35.15 163.627 35.0625 163.127 34.8875C162.627 34.7075 162.204 34.4275 161.859 34.0475C161.514 33.6625 161.294 33.165 161.199 32.555H163.097C163.162 32.83 163.279 33.0475 163.449 33.2075C163.624 33.3675 163.822 33.4825 164.042 33.5525C164.262 33.6175 164.472 33.65 164.672 33.65C165.092 33.65 165.429 33.585 165.684 33.455C165.944 33.32 166.074 33.115 166.074 32.84C166.074 32.63 165.997 32.4625 165.842 32.3375C165.692 32.2125 165.442 32.1175 165.092 32.0525L163.727 31.7675C163.042 31.6225 162.492 31.3775 162.077 31.0325C161.662 30.6825 161.449 30.1875 161.439 29.5475C161.439 29.0825 161.562 28.665 161.807 28.295C162.057 27.925 162.424 27.6325 162.909 27.4175C163.394 27.2025 163.989 27.095 164.694 27.095C165.649 27.095 166.412 27.305 166.982 27.725C167.557 28.145 167.849 28.7375 167.859 29.5025H166.029C165.974 29.2025 165.824 28.9725 165.579 28.8125C165.339 28.6475 165.037 28.565 164.672 28.565C164.292 28.565 163.979 28.6325 163.734 28.7675C163.489 28.9025 163.367 29.1075 163.367 29.3825C163.367 29.5875 163.467 29.75 163.667 29.87C163.867 29.985 164.177 30.085 164.597 30.17L165.857 30.455C166.292 30.56 166.644 30.705 166.914 30.89C167.189 31.07 167.402 31.2675 167.552 31.4825C167.702 31.6975 167.804 31.915 167.859 32.135C167.919 32.35 167.949 32.545 167.949 32.72C167.949 33.235 167.812 33.675 167.537 34.04C167.262 34.4 166.879 34.675 166.389 34.865C165.899 35.055 165.332 35.15 164.687 35.15Z" fill="#36536B"/>
<g clip-path="url(#clip0_0_4873)">
<rect x="272" y="5" width="173" height="48" rx="24" fill="#BA4270"/>
<path d="M303.788 35.15C303.253 35.15 302.728 35.0825 302.213 34.9475C301.698 34.8125 301.228 34.61 300.803 34.34C300.378 34.07 300.025 33.7325 299.745 33.3275C299.47 32.9225 299.305 32.4475 299.25 31.9025H301.493C301.568 32.2325 301.71 32.51 301.92 32.735C302.13 32.96 302.395 33.1325 302.715 33.2525C303.035 33.3725 303.39 33.4325 303.78 33.4325C304.18 33.4325 304.545 33.3825 304.875 33.2825C305.205 33.1825 305.47 33.0325 305.67 32.8325C305.87 32.6275 305.97 32.3725 305.97 32.0675C305.97 31.7925 305.888 31.5675 305.723 31.3925C305.563 31.2175 305.345 31.075 305.07 30.965C304.795 30.855 304.483 30.765 304.133 30.695L302.258 30.3125C301.438 30.1575 300.788 29.8325 300.308 29.3375C299.828 28.8375 299.58 28.1725 299.565 27.3425C299.56 26.6625 299.74 26.075 300.105 25.58C300.475 25.08 300.975 24.695 301.605 24.425C302.24 24.155 302.95 24.02 303.735 24.02C304.67 24.02 305.455 24.1675 306.09 24.4625C306.73 24.7525 307.215 25.1475 307.545 25.6475C307.88 26.1425 308.053 26.695 308.063 27.305H305.865C305.825 26.925 305.71 26.6225 305.52 26.3975C305.33 26.1725 305.085 26.01 304.785 25.91C304.49 25.81 304.153 25.76 303.773 25.76C303.483 25.76 303.218 25.7925 302.978 25.8575C302.743 25.9225 302.543 26.015 302.378 26.135C302.213 26.25 302.085 26.3875 301.995 26.5475C301.905 26.7075 301.86 26.8875 301.86 27.0875C301.86 27.4025 301.965 27.6575 302.175 27.8525C302.385 28.0475 302.778 28.2075 303.353 28.3325L305.213 28.715C305.878 28.845 306.405 29.0375 306.795 29.2925C307.19 29.5475 307.485 29.835 307.68 30.155C307.88 30.475 308.01 30.8025 308.07 31.1375C308.135 31.4675 308.168 31.7725 308.168 32.0525C308.168 32.6375 307.983 33.165 307.613 33.635C307.248 34.1 306.738 34.47 306.083 34.745C305.428 35.015 304.663 35.15 303.788 35.15ZM312.957 27.095C313.607 27.095 314.167 27.2275 314.637 27.4925C315.112 27.7575 315.485 28.115 315.755 28.565C316.03 29.015 316.187 29.5175 316.227 30.0725H314.405C314.37 29.8675 314.297 29.665 314.187 29.465C314.077 29.26 313.922 29.0925 313.722 28.9625C313.522 28.8275 313.272 28.76 312.972 28.76C312.462 28.76 312.047 28.9575 311.727 29.3525C311.412 29.7425 311.255 30.3375 311.255 31.1375C311.255 31.8925 311.41 32.4925 311.72 32.9375C312.03 33.3775 312.462 33.5975 313.017 33.5975C313.312 33.5975 313.557 33.525 313.752 33.38C313.952 33.235 314.107 33.0625 314.217 32.8625C314.327 32.6575 314.397 32.4675 314.427 32.2925H316.205C316.17 32.8275 316.015 33.3125 315.74 33.7475C315.465 34.1775 315.09 34.52 314.615 34.775C314.145 35.025 313.592 35.15 312.957 35.15C312.237 35.15 311.595 34.99 311.03 34.67C310.465 34.35 310.02 33.8925 309.695 33.2975C309.375 32.6975 309.215 31.9825 309.215 31.1525C309.215 30.3525 309.37 29.6475 309.68 29.0375C309.99 28.4275 310.425 27.9525 310.985 27.6125C311.55 27.2675 312.207 27.095 312.957 27.095ZM317.62 35V23.855H319.795V28.3625C319.92 28.1825 320.077 28.005 320.267 27.83C320.457 27.65 320.695 27.5 320.98 27.38C321.265 27.26 321.612 27.2 322.022 27.2C322.517 27.2 322.967 27.2975 323.372 27.4925C323.782 27.6825 324.11 27.96 324.355 28.325C324.605 28.69 324.73 29.135 324.73 29.66V35H322.532V29.9825C322.532 29.6325 322.405 29.365 322.15 29.18C321.9 28.99 321.595 28.895 321.235 28.895C321 28.895 320.772 28.9375 320.552 29.0225C320.332 29.1075 320.152 29.2375 320.012 29.4125C319.877 29.5825 319.81 29.795 319.81 30.05V35H317.62ZM328.196 31.625C328.191 32.02 328.254 32.365 328.384 32.66C328.514 32.95 328.701 33.175 328.946 33.335C329.196 33.49 329.496 33.5675 329.846 33.5675C330.221 33.5675 330.549 33.4875 330.829 33.3275C331.114 33.1675 331.311 32.905 331.421 32.54H333.394C333.309 33.09 333.089 33.56 332.734 33.95C332.384 34.34 331.959 34.6375 331.459 34.8425C330.959 35.0475 330.439 35.15 329.899 35.15C329.134 35.15 328.459 34.99 327.874 34.67C327.294 34.345 326.841 33.8875 326.516 33.2975C326.191 32.7075 326.029 32.0125 326.029 31.2125C326.029 30.4375 326.176 29.74 326.471 29.12C326.766 28.495 327.194 28.0025 327.754 27.6425C328.319 27.2775 328.996 27.095 329.786 27.095C330.576 27.095 331.239 27.2625 331.774 27.5975C332.314 27.9275 332.719 28.39 332.989 28.985C333.264 29.575 333.401 30.2575 333.401 31.0325V31.625H328.196ZM328.189 30.32H331.354C331.354 30.01 331.296 29.725 331.181 29.465C331.066 29.205 330.891 29 330.656 28.85C330.426 28.7 330.136 28.625 329.786 28.625C329.446 28.625 329.156 28.7075 328.916 28.8725C328.681 29.0325 328.501 29.2425 328.376 29.5025C328.251 29.7625 328.189 30.035 328.189 30.32ZM337.686 35.15C336.646 35.15 335.836 34.7925 335.256 34.0775C334.676 33.3575 334.386 32.3575 334.386 31.0775C334.386 30.2675 334.504 29.565 334.739 28.97C334.974 28.375 335.321 27.915 335.781 27.59C336.241 27.26 336.804 27.095 337.469 27.095C337.749 27.095 338.009 27.1275 338.249 27.1925C338.494 27.2525 338.716 27.3375 338.916 27.4475C339.116 27.5575 339.291 27.685 339.441 27.83C339.591 27.975 339.714 28.13 339.809 28.295V23.855H342.006V35H340.416L340.169 33.41C340.099 33.625 340.001 33.835 339.876 34.04C339.751 34.245 339.591 34.4325 339.396 34.6025C339.201 34.7675 338.961 34.9 338.676 35C338.396 35.1 338.066 35.15 337.686 35.15ZM338.166 33.575C338.716 33.575 339.126 33.3825 339.396 32.9975C339.671 32.6125 339.809 31.9625 339.809 31.0475C339.804 30.5175 339.741 30.0775 339.621 29.7275C339.501 29.3775 339.321 29.1175 339.081 28.9475C338.846 28.7725 338.546 28.685 338.181 28.685C337.706 28.685 337.311 28.8675 336.996 29.2325C336.681 29.5925 336.524 30.1975 336.524 31.0475C336.524 31.9125 336.671 32.55 336.966 32.96C337.261 33.37 337.661 33.575 338.166 33.575ZM346.63 35.15C346.27 35.15 345.915 35.095 345.565 34.985C345.22 34.875 344.905 34.7125 344.62 34.4975C344.335 34.2825 344.105 34.0175 343.93 33.7025C343.76 33.3875 343.675 33.0225 343.675 32.6075V27.245H345.865V32.33C345.865 32.69 345.983 32.985 346.218 33.215C346.453 33.445 346.798 33.56 347.253 33.56C347.683 33.56 348.023 33.45 348.273 33.23C348.528 33.005 348.655 32.6925 348.655 32.2925V27.245H350.823V35H349.173L348.918 33.4625C348.828 33.9175 348.658 34.2675 348.408 34.5125C348.163 34.7525 347.88 34.9175 347.56 35.0075C347.245 35.1025 346.935 35.15 346.63 35.15ZM355.009 35.135C354.439 35.135 353.987 35.0675 353.652 34.9325C353.317 34.7975 353.069 34.62 352.909 34.4C352.749 34.175 352.647 33.9275 352.602 33.6575C352.557 33.3825 352.534 33.105 352.534 32.825V23.855H354.679V32.555C354.679 32.84 354.739 33.0725 354.859 33.2525C354.984 33.4275 355.217 33.535 355.557 33.575L355.924 33.5975V34.9475C355.774 34.9975 355.622 35.04 355.467 35.075C355.312 35.115 355.159 35.135 355.009 35.135ZM358.994 31.625C358.989 32.02 359.052 32.365 359.182 32.66C359.312 32.95 359.499 33.175 359.744 33.335C359.994 33.49 360.294 33.5675 360.644 33.5675C361.019 33.5675 361.347 33.4875 361.627 33.3275C361.912 33.1675 362.109 32.905 362.219 32.54H364.192C364.107 33.09 363.887 33.56 363.532 33.95C363.182 34.34 362.757 34.6375 362.257 34.8425C361.757 35.0475 361.237 35.15 360.697 35.15C359.932 35.15 359.257 34.99 358.672 34.67C358.092 34.345 357.639 33.8875 357.314 33.2975C356.989 32.7075 356.827 32.0125 356.827 31.2125C356.827 30.4375 356.974 29.74 357.269 29.12C357.564 28.495 357.992 28.0025 358.552 27.6425C359.117 27.2775 359.794 27.095 360.584 27.095C361.374 27.095 362.037 27.2625 362.572 27.5975C363.112 27.9275 363.517 28.39 363.787 28.985C364.062 29.575 364.199 30.2575 364.199 31.0325V31.625H358.994ZM358.987 30.32H362.152C362.152 30.01 362.094 29.725 361.979 29.465C361.864 29.205 361.689 29 361.454 28.85C361.224 28.7 360.934 28.625 360.584 28.625C360.244 28.625 359.954 28.7075 359.714 28.8725C359.479 29.0325 359.299 29.2425 359.174 29.5025C359.049 29.7625 358.987 30.035 358.987 30.32ZM370.874 35.15C370.379 35.15 369.934 35.0575 369.539 34.8725C369.144 34.6875 368.831 34.42 368.601 34.07C368.371 33.715 368.256 33.285 368.256 32.78C368.256 31.93 368.574 31.285 369.209 30.845C369.844 30.4 370.846 30.17 372.216 30.155L373.184 30.14V29.675C373.184 29.32 373.079 29.0475 372.869 28.8575C372.664 28.6625 372.344 28.5675 371.909 28.5725C371.589 28.5775 371.284 28.6525 370.994 28.7975C370.709 28.9425 370.514 29.195 370.409 29.555H368.586C368.616 28.995 368.779 28.535 369.074 28.175C369.369 27.81 369.769 27.54 370.274 27.365C370.784 27.185 371.361 27.095 372.006 27.095C372.801 27.095 373.439 27.195 373.919 27.395C374.399 27.59 374.746 27.8725 374.961 28.2425C375.176 28.6075 375.284 29.0425 375.284 29.5475V35H373.454L373.274 33.665C373.009 34.225 372.676 34.6125 372.276 34.8275C371.881 35.0425 371.414 35.15 370.874 35.15ZM371.609 33.71C371.809 33.71 372.001 33.675 372.186 33.605C372.376 33.53 372.544 33.4325 372.689 33.3125C372.839 33.1875 372.959 33.0475 373.049 32.8925C373.139 32.7375 373.184 32.5775 373.184 32.4125V31.265L372.396 31.28C372.031 31.285 371.691 31.33 371.376 31.415C371.061 31.495 370.806 31.6275 370.611 31.8125C370.421 31.9975 370.326 32.2475 370.326 32.5625C370.326 32.9225 370.451 33.205 370.701 33.41C370.951 33.61 371.254 33.71 371.609 33.71ZM380.448 24.155C380.503 24.155 380.655 24.155 380.905 24.155C381.16 24.155 381.458 24.155 381.798 24.155C382.143 24.155 382.485 24.1575 382.825 24.1625C383.17 24.1625 383.458 24.165 383.688 24.17C385.003 24.2 386.075 24.435 386.905 24.875C387.735 25.315 388.343 25.93 388.728 26.72C389.118 27.51 389.313 28.445 389.313 29.525C389.313 30.65 389.108 31.6225 388.698 32.4425C388.288 33.2575 387.66 33.8875 386.815 34.3325C385.975 34.7775 384.908 35 383.613 35H380.448V24.155ZM382.653 25.925V33.23H383.658C384.278 33.23 384.84 33.11 385.345 32.87C385.855 32.63 386.263 32.2375 386.568 31.6925C386.873 31.1475 387.025 30.42 387.025 29.51C387.025 28.665 386.89 27.98 386.62 27.455C386.35 26.925 385.965 26.5375 385.465 26.2925C384.965 26.0475 384.373 25.925 383.688 25.925H382.653ZM392.651 31.625C392.646 32.02 392.708 32.365 392.838 32.66C392.968 32.95 393.156 33.175 393.401 33.335C393.651 33.49 393.951 33.5675 394.301 33.5675C394.676 33.5675 395.003 33.4875 395.283 33.3275C395.568 33.1675 395.766 32.905 395.876 32.54H397.848C397.763 33.09 397.543 33.56 397.188 33.95C396.838 34.34 396.413 34.6375 395.913 34.8425C395.413 35.0475 394.893 35.15 394.353 35.15C393.588 35.15 392.913 34.99 392.328 34.67C391.748 34.345 391.296 33.8875 390.971 33.2975C390.646 32.7075 390.483 32.0125 390.483 31.2125C390.483 30.4375 390.631 29.74 390.926 29.12C391.221 28.495 391.648 28.0025 392.208 27.6425C392.773 27.2775 393.451 27.095 394.241 27.095C395.031 27.095 395.693 27.2625 396.228 27.5975C396.768 27.9275 397.173 28.39 397.443 28.985C397.718 29.575 397.856 30.2575 397.856 31.0325V31.625H392.651ZM392.643 30.32H395.808C395.808 30.01 395.751 29.725 395.636 29.465C395.521 29.205 395.346 29 395.111 28.85C394.881 28.7 394.591 28.625 394.241 28.625C393.901 28.625 393.611 28.7075 393.371 28.8725C393.136 29.0325 392.956 29.2425 392.831 29.5025C392.706 29.7625 392.643 30.035 392.643 30.32ZM399.261 35V27.245H401.406V28.34C401.641 28 401.956 27.7075 402.351 27.4625C402.751 27.2175 403.253 27.095 403.858 27.095C404.123 27.095 404.393 27.1425 404.668 27.2375C404.943 27.3325 405.201 27.4725 405.441 27.6575C405.686 27.8375 405.883 28.065 406.033 28.34C406.283 27.985 406.611 27.69 407.016 27.455C407.426 27.215 407.881 27.095 408.381 27.095C408.671 27.095 408.963 27.1425 409.258 27.2375C409.558 27.3325 409.833 27.4875 410.083 27.7025C410.333 27.9175 410.533 28.205 410.683 28.565C410.838 28.92 410.916 29.36 410.916 29.885V35H408.726V30.155C408.726 29.845 408.663 29.5975 408.538 29.4125C408.418 29.2225 408.263 29.0875 408.073 29.0075C407.888 28.9225 407.691 28.88 407.481 28.88C407.286 28.88 407.088 28.92 406.888 29C406.688 29.075 406.518 29.1975 406.378 29.3675C406.238 29.5375 406.168 29.76 406.168 30.035V35H403.986V29.96C403.986 29.725 403.923 29.5275 403.798 29.3675C403.673 29.2075 403.516 29.0875 403.326 29.0075C403.141 28.9225 402.951 28.88 402.756 28.88C402.556 28.88 402.356 28.9225 402.156 29.0075C401.956 29.0875 401.788 29.215 401.653 29.39C401.518 29.56 401.451 29.775 401.451 30.035V35H399.261ZM415.908 35.15C415.148 35.15 414.485 34.9875 413.92 34.6625C413.36 34.3375 412.925 33.8775 412.615 33.2825C412.31 32.6875 412.158 31.9825 412.158 31.1675C412.158 30.3525 412.31 29.64 412.615 29.03C412.925 28.42 413.36 27.945 413.92 27.605C414.485 27.265 415.15 27.095 415.915 27.095C416.68 27.095 417.343 27.2625 417.903 27.5975C418.463 27.9275 418.895 28.3975 419.2 29.0075C419.505 29.6175 419.658 30.3375 419.658 31.1675C419.658 31.9475 419.508 32.6375 419.208 33.2375C418.913 33.8325 418.485 34.3 417.925 34.64C417.37 34.98 416.698 35.15 415.908 35.15ZM415.915 33.5225C416.3 33.5225 416.61 33.41 416.845 33.185C417.08 32.96 417.25 32.665 417.355 32.3C417.465 31.93 417.52 31.5275 417.52 31.0925C417.52 30.6825 417.47 30.295 417.37 29.93C417.275 29.565 417.11 29.27 416.875 29.045C416.64 28.82 416.32 28.7075 415.915 28.7075C415.53 28.7075 415.218 28.815 414.978 29.03C414.743 29.24 414.57 29.5275 414.46 29.8925C414.35 30.2525 414.295 30.6525 414.295 31.0925C414.295 31.4975 414.345 31.8875 414.445 32.2625C414.545 32.6325 414.713 32.935 414.948 33.17C415.183 33.405 415.505 33.5225 415.915 33.5225Z" fill="#FBFCFE"/>
</g>
<defs>
<filter id="filter0_d_0_4873" x="-5" y="0" width="475" height="78" filterUnits="userSpaceOnUse" color-interpolation-filters="sRGB">
<feFlood flood-opacity="0" result="BackgroundImageFix"/>
<feColorMatrix in="SourceAlpha" type="matrix" values="0 0 0 0 0 0 0 0 0 0 0 0 0 0 0 0 0 0 127 0" result="hardAlpha"/>
<feMorphology radius="10" operator="erode" in="SourceAlpha" result="effect1_dropShadow_0_4873"/>
<feOffset dx="10" dy="10"/>
<feGaussianBlur stdDeviation="12.5"/>
<feColorMatrix type="matrix" values="0 0 0 0 0.212302 0 0 0 0 0.32521 0 0 0 0 0.419299 0 0 0 0.25 0"/>
<feBlend mode="normal" in2="BackgroundImageFix" result="effect1_dropShadow_0_4873"/>
<feBlend mode="normal" in="SourceGraphic" in2="effect1_dropShadow_0_4873" result="shape"/>
</filter>
<clipPath id="clip0_0_4873">
<rect width="173" height="48" fill="white" transform="translate(272 5)"/>
</clipPath>
</defs>
</svg>
