<svg width="418" height="659" viewBox="0 0 418 659" fill="none" xmlns="http://www.w3.org/2000/svg">
<g filter="url(#filter0_d_0_4453)">
<path fill-rule="evenodd" clip-rule="evenodd" d="M88.2082 55H279.441C297.782 55 312.649 69.2353 312.649 86.7955V522.066C312.649 539.626 297.782 553.861 279.441 553.861H88.2082C69.8678 553.861 55 539.626 55 522.066V86.7955C55 69.2353 69.8678 55 88.2082 55Z" fill="#213648"/>
</g>
<path opacity="0.595562" fill-rule="evenodd" clip-rule="evenodd" d="M280.181 54.4305H87.3547C78.3522 54.9795 70.0495 59.0875 62.4468 66.7545C67.3362 62.4864 76.057 56.7751 87.5868 56.7751C87.5868 56.7751 272.262 56.7751 279.949 56.7751C291.478 56.7751 300.199 62.4864 305.089 66.7545C297.486 59.0875 289.183 54.9795 280.181 54.4305Z" fill="url(#paint0_linear_0_4453)" fill-opacity="0.65"/>
<path opacity="0.75" fill-rule="evenodd" clip-rule="evenodd" d="M307.432 517.101V89.4123C307.432 77.9371 303.214 73.695 300.698 70.971C298.182 68.2471 298.075 66.8578 301.69 68.9144C305.305 70.971 312.536 76.9611 312.536 89.4123V517.101C312.536 529.553 305.305 535.543 301.69 537.599C298.075 539.656 298.182 538.267 300.698 535.543C303.214 532.819 307.432 528.577 307.432 517.101Z" fill="url(#paint1_linear_0_4453)"/>
<path opacity="0.75" fill-rule="evenodd" clip-rule="evenodd" d="M60.1041 517.101V89.4123C60.1041 77.9371 64.3215 73.695 66.8374 70.971C69.3534 68.2471 69.4605 66.8578 65.8455 68.9144C62.2306 70.971 55.0001 76.9611 55.0001 89.4123V517.101C55.0001 529.553 62.2306 535.543 65.8455 537.599C69.4605 539.656 69.3534 538.267 66.8374 535.543C64.3215 532.819 60.1041 528.577 60.1041 517.101Z" fill="url(#paint2_linear_0_4453)"/>
<path fill-rule="evenodd" clip-rule="evenodd" d="M52.4321 157.987C52.4321 156.882 53.3276 155.987 54.4321 155.987H55.3967C56.5012 155.987 57.3967 156.882 57.3967 157.987V218.338C57.3967 219.442 56.5012 220.338 55.3967 220.338H54.4321C53.3276 220.338 52.4321 219.442 52.4321 218.338V157.987Z" fill="#2E423C"/>
<path fill-rule="evenodd" clip-rule="evenodd" d="M309.968 210.474C309.968 209.369 310.863 208.474 311.968 208.474H312.932C314.037 208.474 314.932 209.369 314.932 210.474V253.424C314.932 254.528 314.037 255.424 312.932 255.424H311.968C310.863 255.424 309.968 254.528 309.968 253.424V210.474Z" fill="#2E423C"/>
<g clip-path="url(#clip0_0_4453)">
<path fill-rule="evenodd" clip-rule="evenodd" d="M161.108 66.875L86.7019 66.875C75.5975 66.875 67.5063 74.4383 67.5063 84.3164V506.706C67.5063 519.586 80.0086 530.998 94.1455 530.998H273.479C287.096 530.998 300.118 519.497 300.118 506.706V85.4582C300.118 73.6185 291.328 66.9454 280.922 66.875L205.336 66.875C205.05 66.9219 199.858 69.0567 197.663 74.4383C195.469 79.8198 191.053 84.1098 186.219 84.1098H180.604C178.306 84.1098 172.256 81.8802 169.192 74.4383C166.129 66.9964 161.395 66.9219 161.108 66.875Z" fill="white"/>
<mask id="mask0_0_4453" style="mask-type:luminance" maskUnits="userSpaceOnUse" x="67" y="66" width="234" height="465">
<path fill-rule="evenodd" clip-rule="evenodd" d="M161.108 66.875L86.7019 66.875C75.5975 66.875 67.5063 74.4383 67.5063 84.3164V506.706C67.5063 519.586 80.0086 530.998 94.1455 530.998H273.479C287.096 530.998 300.118 519.497 300.118 506.706V85.4582C300.118 73.6185 291.328 66.9454 280.922 66.875L205.336 66.875C205.05 66.9219 199.858 69.0567 197.663 74.4383C195.469 79.8198 191.053 84.1098 186.219 84.1098H180.604C178.306 84.1098 172.256 81.8802 169.192 74.4383C166.129 66.9964 161.395 66.9219 161.108 66.875Z" fill="white"/>
</mask>
<g mask="url(#mask0_0_4453)">
<rect x="67.4321" y="66.875" width="233" height="465" fill="url(#paint3_linear_0_4453)"/>
<path d="M146.936 195.431V178.103H142.808V175.463C144.131 175.463 145.197 175.34 146.008 175.095C146.829 174.839 147.443 174.476 147.848 174.007C148.253 173.527 148.493 172.956 148.568 172.295H151.672V195.431H146.936ZM156.928 195.431V193.127V191.943C156.928 190.769 157.146 189.756 157.584 188.903C158.021 188.039 158.597 187.292 159.312 186.663C160.037 186.023 160.826 185.463 161.68 184.983C162.544 184.503 163.408 184.049 164.272 183.623C165.136 183.196 165.925 182.769 166.64 182.343C167.365 181.905 167.946 181.42 168.384 180.887C168.821 180.353 169.04 179.724 169.04 178.999C169.04 178.071 168.714 177.313 168.064 176.727C167.424 176.14 166.544 175.847 165.424 175.847C164.261 175.847 163.274 176.183 162.464 176.855C161.653 177.527 161.152 178.54 160.96 179.895H156.496C156.517 178.423 156.858 177.089 157.52 175.895C158.192 174.689 159.194 173.735 160.528 173.031C161.861 172.327 163.536 171.975 165.552 171.975C167.28 171.975 168.768 172.268 170.016 172.855C171.274 173.441 172.245 174.257 172.928 175.303C173.61 176.348 173.952 177.569 173.952 178.967C173.952 180.129 173.738 181.132 173.312 181.975C172.885 182.817 172.32 183.537 171.616 184.135C170.912 184.732 170.138 185.255 169.296 185.703C168.453 186.151 167.61 186.567 166.768 186.951C165.936 187.335 165.168 187.729 164.464 188.135C163.76 188.529 163.194 188.977 162.768 189.479C162.341 189.98 162.128 190.583 162.128 191.287V191.495H173.92V195.431H156.928ZM182.136 179.287V184.295H177.016V179.287H182.136ZM182.136 190.343V195.335H177.016V190.343H182.136ZM195.883 172.295H200.475V186.391H204.043V190.311H200.475V195.431H195.979L195.995 190.311H185.339V186.471L195.883 172.295ZM189.659 186.391H195.995V177.911L189.659 186.391ZM214.867 195.783C213.427 195.783 212.083 195.505 210.835 194.951C209.587 194.396 208.569 193.617 207.779 192.615C206.99 191.601 206.547 190.417 206.451 189.063H210.899C211.091 189.959 211.518 190.689 212.179 191.255C212.841 191.809 213.673 192.087 214.675 192.087C215.785 192.087 216.755 191.825 217.587 191.303C218.43 190.78 219.059 189.948 219.475 188.807C219.902 187.665 220.051 186.172 219.923 184.327C219.625 184.892 219.209 185.388 218.675 185.815C218.153 186.231 217.539 186.556 216.835 186.791C216.131 187.015 215.347 187.127 214.483 187.127C212.915 187.127 211.523 186.833 210.307 186.247C209.102 185.649 208.153 184.807 207.459 183.719C206.777 182.62 206.435 181.319 206.435 179.815C206.435 178.3 206.798 176.951 207.523 175.767C208.249 174.583 209.262 173.655 210.563 172.983C211.865 172.311 213.39 171.975 215.139 171.975C217.102 171.975 218.793 172.444 220.211 173.383C221.641 174.311 222.734 175.633 223.491 177.351C224.259 179.057 224.643 181.068 224.643 183.383C224.643 186.145 224.249 188.449 223.459 190.295C222.681 192.129 221.561 193.505 220.099 194.423C218.638 195.329 216.894 195.783 214.867 195.783ZM215.283 183.415C215.934 183.415 216.563 183.271 217.171 182.983C217.79 182.684 218.297 182.311 218.691 181.863C219.086 181.415 219.283 180.951 219.283 180.471C219.294 179.436 219.129 178.551 218.787 177.815C218.457 177.068 217.987 176.497 217.379 176.103C216.782 175.708 216.083 175.511 215.283 175.511C214.547 175.511 213.891 175.681 213.315 176.023C212.739 176.364 212.286 176.844 211.955 177.463C211.625 178.081 211.459 178.796 211.459 179.607C211.459 180.812 211.811 181.751 212.515 182.423C213.219 183.084 214.142 183.415 215.283 183.415Z" fill="white"/>
</g>
</g>
<g filter="url(#filter1_d_0_4453)">
<rect x="74.4321" y="221.431" width="218" height="87" rx="5" fill="#FBFCFE"/>
</g>
<g clip-path="url(#clip1_0_4453)">
<path d="M97.0121 240.201L94.4971 244.391V247.431H93.0371V244.386L90.5271 240.201H92.1071L93.7721 243.131L95.4171 240.201H97.0121ZM98.9998 247.531C98.4931 247.531 98.0515 247.422 97.6748 247.206C97.3015 246.989 97.0115 246.682 96.8048 246.286C96.6015 245.889 96.4998 245.419 96.4998 244.876C96.4998 244.332 96.6015 243.857 96.8048 243.451C97.0115 243.044 97.3015 242.727 97.6748 242.501C98.0515 242.274 98.4948 242.161 99.0048 242.161C99.5148 242.161 99.9565 242.272 100.33 242.496C100.703 242.716 100.991 243.029 101.195 243.436C101.398 243.842 101.5 244.322 101.5 244.876C101.5 245.396 101.4 245.856 101.2 246.256C101.003 246.652 100.718 246.964 100.345 247.191C99.9748 247.417 99.5265 247.531 98.9998 247.531ZM99.0048 246.446C99.2615 246.446 99.4681 246.371 99.6248 246.221C99.7815 246.071 99.8948 245.874 99.9648 245.631C100.038 245.384 100.075 245.116 100.075 244.826C100.075 244.552 100.041 244.294 99.9748 244.051C99.9115 243.807 99.8015 243.611 99.6448 243.461C99.4881 243.311 99.2748 243.236 99.0048 243.236C98.7481 243.236 98.5398 243.307 98.3798 243.451C98.2231 243.591 98.1081 243.782 98.0348 244.026C97.9615 244.266 97.9248 244.532 97.9248 244.826C97.9248 245.096 97.9581 245.356 98.0248 245.606C98.0915 245.852 98.2031 246.054 98.3598 246.211C98.5165 246.367 98.7315 246.446 99.0048 246.446ZM104.31 247.531C104.07 247.531 103.833 247.494 103.6 247.421C103.37 247.347 103.16 247.239 102.97 247.096C102.78 246.952 102.626 246.776 102.51 246.566C102.396 246.356 102.34 246.112 102.34 245.836V242.261H103.8V245.651C103.8 245.891 103.878 246.087 104.035 246.241C104.191 246.394 104.421 246.471 104.725 246.471C105.011 246.471 105.238 246.397 105.405 246.251C105.575 246.101 105.66 245.892 105.66 245.626V242.261H107.105V247.431H106.005L105.835 246.406C105.775 246.709 105.661 246.942 105.495 247.106C105.331 247.266 105.143 247.376 104.93 247.436C104.72 247.499 104.513 247.531 104.31 247.531ZM108.323 247.431V242.261H109.728V243.486C109.811 243.222 109.928 242.992 110.078 242.796C110.231 242.596 110.416 242.441 110.633 242.331C110.849 242.217 111.094 242.161 111.368 242.161C111.414 242.161 111.458 242.164 111.498 242.171C111.541 242.174 111.573 242.181 111.593 242.191V243.581C111.563 243.567 111.526 243.559 111.483 243.556C111.443 243.552 111.406 243.549 111.373 243.546C111.086 243.522 110.841 243.531 110.638 243.571C110.434 243.611 110.269 243.679 110.143 243.776C110.016 243.872 109.924 243.991 109.868 244.131C109.811 244.271 109.783 244.427 109.783 244.601V247.431H108.323ZM114.154 247.431L116.744 240.201H118.284L120.869 247.431H119.414L118.824 245.756H116.224L115.619 247.431H114.154ZM116.549 244.481H118.474L117.519 241.611L116.549 244.481ZM121.77 249.041V242.261H123.235L123.24 243.006C123.317 242.882 123.41 242.771 123.52 242.671C123.633 242.567 123.758 242.477 123.895 242.401C124.032 242.324 124.18 242.266 124.34 242.226C124.5 242.182 124.668 242.161 124.845 242.161C125.228 242.161 125.57 242.256 125.87 242.446C126.17 242.632 126.405 242.922 126.575 243.316C126.748 243.706 126.835 244.202 126.835 244.806C126.835 245.432 126.742 245.947 126.555 246.351C126.372 246.751 126.118 247.047 125.795 247.241C125.472 247.434 125.107 247.531 124.7 247.531C124.533 247.531 124.377 247.507 124.23 247.461C124.083 247.417 123.947 247.356 123.82 247.276C123.697 247.196 123.585 247.104 123.485 247.001C123.388 246.894 123.303 246.779 123.23 246.656V249.041H121.77ZM124.35 246.461C124.667 246.461 124.932 246.329 125.145 246.066C125.362 245.802 125.47 245.386 125.47 244.816C125.47 244.316 125.367 243.926 125.16 243.646C124.957 243.362 124.687 243.221 124.35 243.221C123.973 243.221 123.692 243.374 123.505 243.681C123.322 243.984 123.23 244.362 123.23 244.816C123.23 245.106 123.27 245.376 123.35 245.626C123.433 245.876 123.557 246.077 123.72 246.231C123.887 246.384 124.097 246.461 124.35 246.461ZM127.805 249.041V242.261H129.27L129.275 243.006C129.352 242.882 129.445 242.771 129.555 242.671C129.669 242.567 129.794 242.477 129.93 242.401C130.067 242.324 130.215 242.266 130.375 242.226C130.535 242.182 130.704 242.161 130.88 242.161C131.264 242.161 131.605 242.256 131.905 242.446C132.205 242.632 132.44 242.922 132.61 243.316C132.784 243.706 132.87 244.202 132.87 244.806C132.87 245.432 132.777 245.947 132.59 246.351C132.407 246.751 132.154 247.047 131.83 247.241C131.507 247.434 131.142 247.531 130.735 247.531C130.569 247.531 130.412 247.507 130.265 247.461C130.119 247.417 129.982 247.356 129.855 247.276C129.732 247.196 129.62 247.104 129.52 247.001C129.424 246.894 129.339 246.779 129.265 246.656V249.041H127.805ZM130.385 246.461C130.702 246.461 130.967 246.329 131.18 246.066C131.397 245.802 131.505 245.386 131.505 244.816C131.505 244.316 131.402 243.926 131.195 243.646C130.992 243.362 130.722 243.221 130.385 243.221C130.009 243.221 129.727 243.374 129.54 243.681C129.357 243.984 129.265 244.362 129.265 244.816C129.265 245.106 129.305 245.376 129.385 245.626C129.469 245.876 129.592 246.077 129.755 246.231C129.922 246.384 130.132 246.461 130.385 246.461Z" fill="#BA4270"/>
<path opacity="0.5" d="M238.041 245.726C238.041 246.109 237.998 246.436 237.911 246.706C237.824 246.976 237.669 247.181 237.446 247.321C237.226 247.461 236.913 247.531 236.506 247.531C236.249 247.531 236.008 247.501 235.781 247.441C235.558 247.381 235.409 247.336 235.336 247.306L235.401 246.421C235.504 246.457 235.623 246.504 235.756 246.561C235.893 246.614 236.061 246.641 236.261 246.641C236.588 246.641 236.811 246.551 236.931 246.371C237.054 246.191 237.116 245.887 237.116 245.461V240.201H238.041V245.726ZM241.473 247.531C241.203 247.527 240.948 247.489 240.708 247.416C240.471 247.339 240.261 247.227 240.078 247.081C239.895 246.934 239.75 246.752 239.643 246.536C239.54 246.316 239.488 246.061 239.488 245.771V242.261H240.413V245.676C240.413 246.012 240.516 246.286 240.723 246.496C240.933 246.706 241.248 246.811 241.668 246.811C242.048 246.811 242.353 246.712 242.583 246.516C242.816 246.316 242.933 246.019 242.933 245.626V242.261H243.853V247.431H243.118L243.023 246.441C242.96 246.701 242.851 246.911 242.698 247.071C242.548 247.231 242.366 247.349 242.153 247.426C241.943 247.499 241.716 247.534 241.473 247.531ZM247.131 247.531C246.771 247.531 246.436 247.476 246.126 247.366C245.819 247.252 245.564 247.077 245.361 246.841C245.157 246.601 245.029 246.296 244.976 245.926H245.816C245.862 246.129 245.946 246.299 246.066 246.436C246.189 246.569 246.342 246.671 246.526 246.741C246.709 246.807 246.909 246.841 247.126 246.841C247.472 246.841 247.752 246.776 247.966 246.646C248.179 246.516 248.286 246.316 248.286 246.046C248.286 245.856 248.229 245.704 248.116 245.591C248.006 245.474 247.834 245.389 247.601 245.336L246.531 245.071C246.114 244.971 245.781 244.814 245.531 244.601C245.281 244.387 245.156 244.089 245.156 243.706C245.152 243.402 245.224 243.136 245.371 242.906C245.517 242.676 245.737 242.494 246.031 242.361C246.324 242.227 246.689 242.161 247.126 242.161C247.686 242.161 248.137 242.287 248.481 242.541C248.827 242.791 249.007 243.159 249.021 243.646H248.206C248.172 243.399 248.061 243.204 247.871 243.061C247.684 242.914 247.432 242.841 247.116 242.841C246.786 242.841 246.517 242.907 246.311 243.041C246.104 243.171 246.001 243.374 246.001 243.651C246.001 243.834 246.074 243.979 246.221 244.086C246.367 244.189 246.584 244.276 246.871 244.346L247.906 244.606C248.146 244.669 248.342 244.752 248.496 244.856C248.652 244.959 248.776 245.074 248.866 245.201C248.959 245.327 249.024 245.461 249.061 245.601C249.101 245.737 249.121 245.869 249.121 245.996C249.121 246.312 249.041 246.586 248.881 246.816C248.724 247.042 248.497 247.219 248.201 247.346C247.907 247.469 247.551 247.531 247.131 247.531ZM252.932 242.936H251.767V246.151C251.767 246.334 251.785 246.469 251.822 246.556C251.862 246.639 251.927 246.692 252.017 246.716C252.11 246.739 252.237 246.751 252.397 246.751H252.962V247.371C252.899 247.394 252.802 247.414 252.672 247.431C252.545 247.447 252.387 247.456 252.197 247.456C251.84 247.456 251.564 247.407 251.367 247.311C251.17 247.214 251.032 247.071 250.952 246.881C250.875 246.691 250.837 246.457 250.837 246.181V242.936H249.997V242.261H250.862L251.087 240.756H251.767V242.256H252.932V242.936ZM261.46 240.201H262.385V247.431H261.56L257.68 241.731V247.431H256.755V240.201H257.64L261.46 245.821V240.201ZM266.091 247.531C265.614 247.531 265.197 247.429 264.841 247.226C264.484 247.019 264.207 246.717 264.011 246.321C263.814 245.924 263.716 245.439 263.716 244.866C263.716 244.326 263.807 243.852 263.991 243.446C264.174 243.039 264.442 242.724 264.796 242.501C265.152 242.274 265.584 242.161 266.091 242.161C266.567 242.161 266.981 242.266 267.331 242.476C267.684 242.682 267.957 242.987 268.151 243.391C268.344 243.794 268.441 244.286 268.441 244.866C268.441 245.392 268.351 245.856 268.171 246.256C267.994 246.656 267.731 246.969 267.381 247.196C267.034 247.419 266.604 247.531 266.091 247.531ZM266.091 246.801C266.401 246.801 266.662 246.722 266.876 246.566C267.089 246.409 267.251 246.184 267.361 245.891C267.471 245.597 267.526 245.249 267.526 244.846C267.526 244.476 267.477 244.144 267.381 243.851C267.284 243.554 267.129 243.319 266.916 243.146C266.706 242.972 266.431 242.886 266.091 242.886C265.777 242.886 265.512 242.964 265.296 243.121C265.079 243.274 264.914 243.497 264.801 243.791C264.691 244.084 264.636 244.436 264.636 244.846C264.636 245.209 264.686 245.539 264.786 245.836C264.886 246.132 265.042 246.367 265.256 246.541C265.469 246.714 265.747 246.801 266.091 246.801ZM276.265 242.261L274.7 247.431H273.79L272.61 243.616L271.49 247.431H270.585L268.99 242.261H269.845L271.03 246.236H271.11L272.275 242.261H272.975L274.185 246.226H274.265L275.4 242.261H276.265Z" fill="#36536B"/>
</g>
<defs>
<filter id="filter0_d_0_4453" x="0" y="0" width="417.649" height="658.861" filterUnits="userSpaceOnUse" color-interpolation-filters="sRGB">
<feFlood flood-opacity="0" result="BackgroundImageFix"/>
<feColorMatrix in="SourceAlpha" type="matrix" values="0 0 0 0 0 0 0 0 0 0 0 0 0 0 0 0 0 0 127 0" result="hardAlpha"/>
<feOffset dx="25" dy="25"/>
<feGaussianBlur stdDeviation="40"/>
<feColorMatrix type="matrix" values="0 0 0 0 0.212302 0 0 0 0 0.32521 0 0 0 0 0.419299 0 0 0 0.300727 0"/>
<feBlend mode="normal" in2="BackgroundImageFix" result="effect1_dropShadow_0_4453"/>
<feBlend mode="normal" in="SourceGraphic" in2="effect1_dropShadow_0_4453" result="shape"/>
</filter>
<filter id="filter1_d_0_4453" x="69.4321" y="216.431" width="248" height="117" filterUnits="userSpaceOnUse" color-interpolation-filters="sRGB">
<feFlood flood-opacity="0" result="BackgroundImageFix"/>
<feColorMatrix in="SourceAlpha" type="matrix" values="0 0 0 0 0 0 0 0 0 0 0 0 0 0 0 0 0 0 127 0" result="hardAlpha"/>
<feMorphology radius="10" operator="erode" in="SourceAlpha" result="effect1_dropShadow_0_4453"/>
<feOffset dx="10" dy="10"/>
<feGaussianBlur stdDeviation="12.5"/>
<feColorMatrix type="matrix" values="0 0 0 0 0.212302 0 0 0 0 0.32521 0 0 0 0 0.419299 0 0 0 0.25 0"/>
<feBlend mode="normal" in2="BackgroundImageFix" result="effect1_dropShadow_0_4453"/>
<feBlend mode="normal" in="SourceGraphic" in2="effect1_dropShadow_0_4453" result="shape"/>
</filter>
<linearGradient id="paint0_linear_0_4453" x1="62.4468" y1="54.4305" x2="62.4468" y2="66.7545" gradientUnits="userSpaceOnUse">
<stop stop-color="#454545"/>
<stop offset="0.226279" stop-color="#999999"/>
<stop offset="1" stop-color="white"/>
</linearGradient>
<linearGradient id="paint1_linear_0_4453" x1="312.536" y1="140.178" x2="303.075" y2="140.178" gradientUnits="userSpaceOnUse">
<stop stop-color="white" stop-opacity="0.01"/>
<stop offset="0.222178" stop-color="#BABABA"/>
<stop offset="0.54678" stop-color="white" stop-opacity="0.01"/>
<stop offset="1" stop-color="white" stop-opacity="0.01"/>
</linearGradient>
<linearGradient id="paint2_linear_0_4453" x1="55.0001" y1="139.917" x2="64.4762" y2="139.917" gradientUnits="userSpaceOnUse">
<stop stop-color="white" stop-opacity="0.01"/>
<stop offset="0.222178" stop-color="#BABABA"/>
<stop offset="0.54678" stop-color="white" stop-opacity="0.01"/>
<stop offset="1" stop-color="white" stop-opacity="0.01"/>
</linearGradient>
<linearGradient id="paint3_linear_0_4453" x1="68.3391" y1="66.875" x2="68.3391" y2="528.255" gradientUnits="userSpaceOnUse">
<stop stop-color="#9CB6CD"/>
<stop offset="0.420564" stop-color="#9AB3CA"/>
<stop offset="0.716592" stop-color="#557496"/>
<stop offset="1" stop-color="#475178"/>
</linearGradient>
<clipPath id="clip0_0_4453">
<rect width="233" height="465" fill="white" transform="translate(67.5063 66.875)"/>
</clipPath>
<clipPath id="clip1_0_4453">
<rect width="187" height="11" fill="white" transform="translate(90.4321 237.431)"/>
</clipPath>
</defs>
</svg>
